<mxfile host="app.diagrams.net" modified="2023-06-01T00:43:25.163Z" agent="Mozilla/5.0 (Windows NT 10.0; Win64; x64) AppleWebKit/537.36 (KHTML, like Gecko) Chrome/113.0.0.0 Safari/537.36" etag="BJ9EK2VBdfeWRpK5ev8M" version="21.3.5" type="device">
  <diagram name="Page-1" id="rBpMqmvQWxPGha3Z_L9f">
    <mxGraphModel dx="1434" dy="756" grid="1" gridSize="10" guides="1" tooltips="1" connect="1" arrows="1" fold="1" page="1" pageScale="1" pageWidth="827" pageHeight="1169" math="0" shadow="0">
      <root>
        <mxCell id="0" />
        <mxCell id="1" parent="0" />
        <mxCell id="-kE1WcAJg6WKtTII0vEK-4" style="edgeStyle=orthogonalEdgeStyle;rounded=0;orthogonalLoop=1;jettySize=auto;html=1;entryX=0;entryY=0.5;entryDx=0;entryDy=0;" edge="1" parent="1" source="-kE1WcAJg6WKtTII0vEK-1" target="-kE1WcAJg6WKtTII0vEK-3">
          <mxGeometry relative="1" as="geometry" />
        </mxCell>
        <mxCell id="-kE1WcAJg6WKtTII0vEK-1" value="유져" style="shape=umlActor;verticalLabelPosition=bottom;verticalAlign=top;html=1;outlineConnect=0;" vertex="1" parent="1">
          <mxGeometry x="50" y="190" width="30" height="60" as="geometry" />
        </mxCell>
        <mxCell id="-kE1WcAJg6WKtTII0vEK-8" style="rounded=0;orthogonalLoop=1;jettySize=auto;html=1;entryX=0.5;entryY=0;entryDx=0;entryDy=0;" edge="1" parent="1" source="-kE1WcAJg6WKtTII0vEK-3" target="-kE1WcAJg6WKtTII0vEK-5">
          <mxGeometry relative="1" as="geometry" />
        </mxCell>
        <mxCell id="-kE1WcAJg6WKtTII0vEK-9" style="rounded=0;orthogonalLoop=1;jettySize=auto;html=1;entryX=0.5;entryY=0;entryDx=0;entryDy=0;exitX=0.5;exitY=1;exitDx=0;exitDy=0;" edge="1" parent="1" source="-kE1WcAJg6WKtTII0vEK-3" target="-kE1WcAJg6WKtTII0vEK-6">
          <mxGeometry relative="1" as="geometry" />
        </mxCell>
        <mxCell id="-kE1WcAJg6WKtTII0vEK-11" style="rounded=0;orthogonalLoop=1;jettySize=auto;html=1;entryX=0.5;entryY=0;entryDx=0;entryDy=0;exitX=0.5;exitY=1;exitDx=0;exitDy=0;" edge="1" parent="1" source="-kE1WcAJg6WKtTII0vEK-3" target="-kE1WcAJg6WKtTII0vEK-7">
          <mxGeometry relative="1" as="geometry" />
        </mxCell>
        <mxCell id="-kE1WcAJg6WKtTII0vEK-20" style="rounded=0;orthogonalLoop=1;jettySize=auto;html=1;entryX=0;entryY=0.5;entryDx=0;entryDy=0;exitX=1;exitY=0.5;exitDx=0;exitDy=0;" edge="1" parent="1" source="-kE1WcAJg6WKtTII0vEK-3" target="-kE1WcAJg6WKtTII0vEK-19">
          <mxGeometry relative="1" as="geometry" />
        </mxCell>
        <mxCell id="-kE1WcAJg6WKtTII0vEK-3" value="로그인하기" style="ellipse;whiteSpace=wrap;html=1;" vertex="1" parent="1">
          <mxGeometry x="140" y="180" width="120" height="80" as="geometry" />
        </mxCell>
        <mxCell id="-kE1WcAJg6WKtTII0vEK-13" style="edgeStyle=orthogonalEdgeStyle;rounded=0;orthogonalLoop=1;jettySize=auto;html=1;entryX=0.5;entryY=0;entryDx=0;entryDy=0;" edge="1" parent="1" source="-kE1WcAJg6WKtTII0vEK-5" target="-kE1WcAJg6WKtTII0vEK-12">
          <mxGeometry relative="1" as="geometry" />
        </mxCell>
        <mxCell id="-kE1WcAJg6WKtTII0vEK-5" value="회원가입하기" style="ellipse;whiteSpace=wrap;html=1;" vertex="1" parent="1">
          <mxGeometry x="140" y="340" width="120" height="80" as="geometry" />
        </mxCell>
        <mxCell id="-kE1WcAJg6WKtTII0vEK-10" style="rounded=0;orthogonalLoop=1;jettySize=auto;html=1;entryX=0.5;entryY=0;entryDx=0;entryDy=0;exitX=0.5;exitY=1;exitDx=0;exitDy=0;" edge="1" parent="1" source="-kE1WcAJg6WKtTII0vEK-6" target="-kE1WcAJg6WKtTII0vEK-7">
          <mxGeometry relative="1" as="geometry" />
        </mxCell>
        <mxCell id="-kE1WcAJg6WKtTII0vEK-23" style="edgeStyle=orthogonalEdgeStyle;rounded=0;orthogonalLoop=1;jettySize=auto;html=1;entryX=0;entryY=0.5;entryDx=0;entryDy=0;exitX=1;exitY=0.5;exitDx=0;exitDy=0;" edge="1" parent="1" source="-kE1WcAJg6WKtTII0vEK-6" target="-kE1WcAJg6WKtTII0vEK-17">
          <mxGeometry relative="1" as="geometry">
            <Array as="points">
              <mxPoint x="480" y="320" />
            </Array>
          </mxGeometry>
        </mxCell>
        <mxCell id="-kE1WcAJg6WKtTII0vEK-6" value="아이디찾기" style="ellipse;whiteSpace=wrap;html=1;" vertex="1" parent="1">
          <mxGeometry x="360" y="320" width="120" height="80" as="geometry" />
        </mxCell>
        <mxCell id="-kE1WcAJg6WKtTII0vEK-24" style="edgeStyle=orthogonalEdgeStyle;rounded=0;orthogonalLoop=1;jettySize=auto;html=1;entryX=0.5;entryY=1;entryDx=0;entryDy=0;exitX=1;exitY=0.5;exitDx=0;exitDy=0;" edge="1" parent="1" source="-kE1WcAJg6WKtTII0vEK-7" target="-kE1WcAJg6WKtTII0vEK-17">
          <mxGeometry relative="1" as="geometry" />
        </mxCell>
        <mxCell id="-kE1WcAJg6WKtTII0vEK-7" value="비밀번호찾기" style="ellipse;whiteSpace=wrap;html=1;" vertex="1" parent="1">
          <mxGeometry x="270" y="450" width="120" height="80" as="geometry" />
        </mxCell>
        <mxCell id="-kE1WcAJg6WKtTII0vEK-16" style="edgeStyle=orthogonalEdgeStyle;rounded=0;orthogonalLoop=1;jettySize=auto;html=1;" edge="1" parent="1" source="-kE1WcAJg6WKtTII0vEK-12" target="-kE1WcAJg6WKtTII0vEK-15">
          <mxGeometry relative="1" as="geometry" />
        </mxCell>
        <mxCell id="-kE1WcAJg6WKtTII0vEK-12" value="유효성검사하기" style="ellipse;whiteSpace=wrap;html=1;" vertex="1" parent="1">
          <mxGeometry x="140" y="570" width="120" height="80" as="geometry" />
        </mxCell>
        <mxCell id="-kE1WcAJg6WKtTII0vEK-14" value="&lt;h1&gt;유효성검사&lt;/h1&gt;&lt;p&gt;이메일 중복검사&lt;/p&gt;&lt;p&gt;이메일 형식검사&lt;/p&gt;&lt;p&gt;비밀번호 적합성 검사&lt;/p&gt;" style="text;html=1;strokeColor=none;fillColor=none;spacing=5;spacingTop=-20;whiteSpace=wrap;overflow=hidden;rounded=0;" vertex="1" parent="1">
          <mxGeometry x="135" y="660" width="130" height="120" as="geometry" />
        </mxCell>
        <mxCell id="-kE1WcAJg6WKtTII0vEK-18" style="edgeStyle=orthogonalEdgeStyle;rounded=0;orthogonalLoop=1;jettySize=auto;html=1;entryX=0;entryY=0.5;entryDx=0;entryDy=0;" edge="1" parent="1" source="-kE1WcAJg6WKtTII0vEK-15" target="-kE1WcAJg6WKtTII0vEK-17">
          <mxGeometry relative="1" as="geometry">
            <Array as="points">
              <mxPoint x="530" y="610" />
              <mxPoint x="530" y="320" />
            </Array>
          </mxGeometry>
        </mxCell>
        <mxCell id="-kE1WcAJg6WKtTII0vEK-15" value="회원정보 저장하기" style="ellipse;whiteSpace=wrap;html=1;" vertex="1" parent="1">
          <mxGeometry x="360" y="570" width="120" height="80" as="geometry" />
        </mxCell>
        <mxCell id="-kE1WcAJg6WKtTII0vEK-17" value="회원정보 Table" style="shape=internalStorage;whiteSpace=wrap;html=1;backgroundOutline=1;" vertex="1" parent="1">
          <mxGeometry x="560" y="280" width="130" height="80" as="geometry" />
        </mxCell>
        <mxCell id="-kE1WcAJg6WKtTII0vEK-21" style="edgeStyle=orthogonalEdgeStyle;rounded=0;orthogonalLoop=1;jettySize=auto;html=1;entryX=0.5;entryY=0;entryDx=0;entryDy=0;exitX=1;exitY=0.5;exitDx=0;exitDy=0;" edge="1" parent="1" source="-kE1WcAJg6WKtTII0vEK-19" target="-kE1WcAJg6WKtTII0vEK-17">
          <mxGeometry relative="1" as="geometry" />
        </mxCell>
        <mxCell id="-kE1WcAJg6WKtTII0vEK-19" value="회원정보 조회&lt;br&gt;로그인 승인하기" style="ellipse;whiteSpace=wrap;html=1;" vertex="1" parent="1">
          <mxGeometry x="360" y="170" width="120" height="80" as="geometry" />
        </mxCell>
      </root>
    </mxGraphModel>
  </diagram>
</mxfile>
